<svg xmlns="http://www.w3.org/2000/svg" xmlns:xlink="http://www.w3.org/1999/xlink" version="1.1" x="0px" y="0px" viewBox="0 0 66 82.5" style="enable-background:new 0 0 66 66;" xml:space="preserve"><path d="M61.03,47.14c2.74-5.41,3.86-11.51,3.16-17.68c-0.37-3.26-1.24-6.34-2.5-9.19c-7.2,0.93-14.43,1.4-21.64,1.4  c-11.62,0-23.2-1.21-34.64-3.61c-2.97,5.46-4.36,11.85-3.6,18.48c0.43,3.77,1.51,7.31,3.12,10.51  C24.07,53.39,42.94,53.42,61.03,47.14z M30.42,25.27c6.16-0.7,11.73,3.74,12.43,9.89c0.34,2.98-0.5,5.91-2.37,8.26  c-1.87,2.35-4.54,3.83-7.52,4.16c-0.43,0.05-0.86,0.07-1.29,0.07c-2.53,0-4.96-0.85-6.97-2.45c-2.35-1.87-3.83-4.54-4.16-7.52  C19.83,31.55,24.27,25.97,30.42,25.27z M3.3,40.7c-0.31-1.95,0.27-3.51,0.66-3.44c0.41,0.06,0.52,1.51,0.8,3.21  c0.26,1.7,0.6,3.11,0.23,3.3C4.64,43.96,3.61,42.66,3.3,40.7z"/><path d="M60.79,18.41C55.47,8.3,44.84,1.61,33.02,1.61c-1.18,0-2.37,0.07-3.56,0.2c-9.83,1.12-18.09,6.69-23,14.47  C24.36,19.97,42.63,20.68,60.79,18.41z M38.5,4.63c1.05,0.15,2.27,0.47,3.59,0.94c1.31,0.5,2.71,1.17,4.07,2.04  c1.36,0.89,2.54,1.89,3.53,2.87c0.97,1.01,1.77,1.99,2.33,2.88c1.15,1.78,1.53,3.04,1.37,3.11c-0.2,0.11-0.9-0.96-2.21-2.49  c-1.3-1.53-3.28-3.49-5.83-5.14c-2.56-1.65-5.15-2.65-7.09-3.2c-1.93-0.56-3.19-0.76-3.18-0.99C35.1,4.48,36.4,4.31,38.5,4.63z"/><path d="M25.92,43.69c1.94,1.54,4.36,2.24,6.82,1.96c2.46-0.28,4.66-1.5,6.21-3.44c1.54-1.94,2.24-4.36,1.96-6.82c0,0,0,0,0,0  c-0.54-4.72-4.56-8.22-9.2-8.22c-0.35,0-0.7,0.02-1.05,0.06c-5.08,0.58-8.74,5.18-8.16,10.26C22.76,39.94,23.98,42.14,25.92,43.69z   M25.49,34.43c0.37-1.58,1.25-2.82,2.05-3.49c0.81-0.68,1.46-0.84,1.55-0.68c0.12,0.18-0.28,0.63-0.78,1.38  c-0.51,0.74-1.07,1.83-1.39,3.13c-0.3,1.31-0.28,2.53-0.16,3.42c0.11,0.89,0.27,1.48,0.08,1.58c-0.16,0.1-0.67-0.34-1.08-1.31  C25.34,37.51,25.12,36.01,25.49,34.43z"/><path d="M33.5,53.8c-8.96,0-18.03-1.43-27.16-4.25c6.21,9.96,17.78,16.03,30.2,14.63c8.33-0.95,15.79-5.08,21.02-11.64  c0.74-0.93,1.41-1.89,2.03-2.87C51.04,52.42,42.32,53.8,33.5,53.8z"/><text x="0" y="81" fill="#000000" font-size="5px" font-weight="bold" font-family="'Helvetica Neue', Helvetica, Arial-Unicode, Arial, Sans-serif">Created by Design Circle</text><text x="0" y="86" fill="#000000" font-size="5px" font-weight="bold" font-family="'Helvetica Neue', Helvetica, Arial-Unicode, Arial, Sans-serif">from the Noun Project</text></svg>